<svg className="h-6 w-6" viewBox="0 0 22 22" fill="none" xmlns="http://www.w3.org/2000/svg">
<path d="M12.6806 6.11112C14.0306 6.11112 15.125 5.0167 15.125 3.66667C15.125 2.31664 14.0306 1.22223 12.6806 1.22223C11.3305 1.22223 10.2361 2.31664 10.2361 3.66667C10.2361 5.0167 11.3305 6.11112 12.6806 6.11112Z" fill="#393E46"/>
<path d="M15.18 16.0294C15.1125 15.984 15.0366 15.9525 14.9567 15.9368C14.8768 15.9212 14.7946 15.9216 14.7149 15.9381C14.6353 15.9546 14.5597 15.9869 14.4926 16.033C14.4255 16.0791 14.3684 16.1382 14.3244 16.2067C13.7337 17.0816 13.01 17.8589 12.1794 18.5106C11.9778 18.6633 11.2261 19.2439 10.9083 19.1217C10.6883 19.0544 10.8167 18.6206 10.8594 18.4372L11.1833 17.4778C11.3178 17.0867 13.6583 10.1444 13.915 9.35C14.2939 8.18889 14.1289 7.04611 12.3994 7.32111C11.9289 7.37 7.15611 7.98722 7.07056 7.99333C6.99031 7.99855 6.91187 8.01952 6.83972 8.05505C6.76757 8.09058 6.70313 8.13997 6.65007 8.20041C6.59701 8.26084 6.55638 8.33114 6.53049 8.40728C6.50459 8.48342 6.49395 8.56391 6.49917 8.64416C6.50439 8.72442 6.52536 8.80285 6.56089 8.875C6.59642 8.94715 6.64581 9.01159 6.70625 9.06465C6.76668 9.11771 6.83698 9.15834 6.91312 9.18424C6.98926 9.21013 7.06975 9.22077 7.15 9.21555C7.15 9.21555 8.98334 8.97722 9.185 8.95889C9.2883 8.9488 9.39231 8.96882 9.48448 9.01653C9.57665 9.06425 9.65304 9.13761 9.70445 9.22777C9.81518 9.57008 9.80001 9.94067 9.66167 10.2728C9.50278 10.8839 6.99111 17.9606 6.91167 18.37C6.82646 18.7126 6.85012 19.0733 6.97935 19.4019C7.10859 19.7304 7.33698 20.0106 7.63278 20.2033C8.18798 20.5734 8.84904 20.7515 9.515 20.7106C10.1625 20.7026 10.8029 20.5742 11.4033 20.3317C12.925 19.7206 14.5139 18.095 15.3511 16.8178C15.4232 16.688 15.4456 16.5364 15.4141 16.3914C15.3826 16.2463 15.2994 16.1176 15.18 16.0294Z" fill="#393E46"/>
</svg>
